<?xml version="1.0" standalone="no"?>
<!DOCTYPE svg PUBLIC "-//W3C//DTD SVG 20010904//EN"
 "http://www.w3.org/TR/2001/REC-SVG-20010904/DTD/svg10.dtd">
<svg version="1.0" xmlns="http://www.w3.org/2000/svg"
 width="260.000000pt" height="260.000000pt" viewBox="0 0 260.000000 260.000000"
 preserveAspectRatio="xMidYMid meet">
<metadata>
Created by potrace 1.14, written by Peter Selinger 2001-2017
</metadata>
<g transform="translate(0.000000,260.000000) scale(0.100000,-0.100000)"
fill="#000000" stroke="none">
<path d="M1297 2432 c-5 -6 -50 -141 -102 -299 l-93 -288 -321 -5 -321 -5 56
-40 c31 -22 62 -46 70 -52 7 -7 15 -13 18 -13 3 0 14 -7 23 -15 10 -8 83 -61
163 -119 80 -58 154 -113 166 -123 l21 -18 -98 -299 c-54 -165 -97 -301 -96
-302 1 -2 27 15 57 37 345 251 455 329 466 329 7 0 15 -4 18 -9 5 -8 310 -231
444 -325 30 -21 53 -32 50 -25 -22 58 -188 579 -188 590 0 8 115 97 255 199
l254 185 -321 5 -321 5 -44 140 c-24 77 -48 149 -53 160 -7 15 -48 145 -55
175 -1 3 -5 12 -8 20 -4 8 -13 35 -20 60 -8 28 -16 40 -20 32z"/>
<path d="M1579 763 c-1 -4 -2 -144 -3 -310 l-1 -303 30 -1 c114 -4 307 2 345
11 70 17 133 69 166 137 26 53 29 68 29 163 0 87 -4 113 -22 150 -29 61 -67
98 -133 129 -51 24 -66 26 -232 29 -98 2 -179 0 -179 -5z m343 -200 c55 -55
47 -187 -14 -227 -24 -16 -129 -28 -144 -17 -5 3 -9 68 -9 145 l0 138 68 -5
c60 -4 73 -9 99 -34z"/>
<path d="M450 460 c0 -229 3 -299 13 -302 10 -3 92 -3 149 1 15 1 18 14 20 93
l3 92 90 1 c108 2 151 15 193 58 79 82 68 255 -20 314 -49 33 -106 41 -285 41
l-163 1 0 -299z m317 135 c27 -6 45 -54 30 -81 -16 -30 -27 -34 -99 -34 l-68
0 0 59 c0 37 4 61 12 63 13 5 91 0 125 -7z"/>
<path d="M1045 453 l0 -296 210 0 c116 1 216 2 223 2 8 1 12 23 12 74 l0 73
-126 0 c-103 -1 -127 2 -133 14 -4 8 -7 108 -6 223 l2 207 -91 0 -91 0 0 -297z"/>
</g>
</svg>
